# xmcd
# 
# Track frame offsets:
#     150
#     33590
#     52980
#     67910
#     86777
#     106680
#     125160
#     138507
#     154612
#     171109
#     186740
#     203837
#     219605
# 
# Disc length: 3188
# 
# Revision: 5
# Processed by: cddbd v1.5.2PL0 Copyright (c) Steve Scherf et al.
# Submitted via: fre:ac v1.0.31
# 
DISCID=be0c720d
DTITLE=Various Artist - 客家心●鄉土情
DYEAR=0
DGENRE=
TTITLE0=范振宗 - 演講＋客家本色
TTITLE1=彭兆宏 - 掌牛郎
TTITLE2=陳紫苑 - 老虎鼓
TTITLE3=陳威 - 想故鄉
TTITLE4=鄧百成 - 紅梅
TTITLE5=陳威 - FORMOSA福爾摩莎
TTITLE6=徐佩琪 - 小猴噹三斤零
TTITLE7=王羽馨 - 摘茶
TTITLE8=林展逸 - 憨人有憨福
TTITLE9=林宣甫 - 亻厓 出世作客家人
TTITLE10=鄧百成 feat 劉平芳 - 撥風落大水
TTITLE11=李慧敏 - 大牛牯
TTITLE12=劉平芳 - 亻厓 介寶貝
EXTD=
EXTT0=
EXTT1=
EXTT2=
EXTT3=
EXTT4=
EXTT5=
EXTT6=
EXTT7=
EXTT8=
EXTT9=
EXTT10=
EXTT11=
EXTT12=
PLAYORDER=
